<?xml version="1.0" encoding="UTF-8"?>
<svg version="1.1" xmlns="http://www.w3.org/2000/svg" width="128" height="128">
<path d="M0 0 C1.4540625 0.0309375 1.4540625 0.0309375 2.9375 0.0625 C4.0625 5.8125 4.0625 5.8125 2.9375 8.0625 C10.36446843 8.33985567 17.15421315 8.49469548 24.375 6.5625 C40.2852489 2.46292666 56.09752487 5.31348022 70.50390625 12.91015625 C84.95785189 21.51223586 94.9616419 35.69377054 99.37890625 51.765625 C103.57389865 69.01496437 100.00652341 86.03851543 90.9375 101.0625 C83.37162002 112.37992628 73.40491631 119.78971919 60.9375 125.0625 C60.13441406 125.40410156 59.33132812 125.74570313 58.50390625 126.09765625 C43.53226063 131.24790234 24.83373846 129.25502845 10.7734375 122.5546875 C-3.76352464 114.64216381 -14.57508878 102.76091818 -20.0625 87.0625 C-23.83391426 72.9310562 -24.95896238 58.38556925 -19 44.60546875 C-17.78173525 41.30092562 -17.63428624 38.25935469 -17.4375 34.75 C-17.32535156 32.86861328 -17.32535156 32.86861328 -17.2109375 30.94921875 C-17.16195313 29.99660156 -17.11296875 29.04398438 -17.0625 28.0625 C-13.5975 27.5675 -13.5975 27.5675 -10.0625 27.0625 C-10.3925 25.7425 -10.7225 24.4225 -11.0625 23.0625 C-13.0425 23.0625 -15.0225 23.0625 -17.0625 23.0625 C-17.08935412 20.75006208 -17.10882841 18.4375373 -17.125 16.125 C-17.13660156 14.83722656 -17.14820313 13.54945312 -17.16015625 12.22265625 C-17.0625 9.0625 -17.0625 9.0625 -16.0625 8.0625 C-14.04285801 7.99005947 -12.02082876 7.97872812 -10 8 C-8.34291016 8.01353516 -8.34291016 8.01353516 -6.65234375 8.02734375 C-5.79769531 8.03894531 -4.94304688 8.05054688 -4.0625 8.0625 C-4.0934375 6.3609375 -4.0934375 6.3609375 -4.125 4.625 C-4.04530802 0.08255731 -4.04530802 0.08255731 0 0 Z " fill="#1D2F79" transform="translate(25.0625,-0.0625)"/>
<path d="M0 0 C7.80971831 0.97122562 13.41312118 5.94421417 18.3125 11.8125 C21.67153862 16.24883985 24.1878615 20.73763171 26 26 C26.20753906 26.59039062 26.41507812 27.18078125 26.62890625 27.7890625 C27.06603066 30.3934037 26.83157088 32.81163776 26.63085938 35.43261719 C26.17673439 42.60711416 26.81600944 47.13919243 31.5 52.75 C32.3353125 53.67296875 33.170625 54.5959375 34.03125 55.546875 C36 58 36 58 36 62 C35.05125 62.37125 34.1025 62.7425 33.125 63.125 C29.3216323 65.40702062 29.06674606 66.82191125 28 71 C27.34 71.66 26.68 72.32 26 73 C25.67 73.825 25.34 74.65 25 75.5 C24 78 24 78 22 80 C21.66832069 81.76045171 21.40644119 83.53450502 21.1875 85.3125 C20.53915487 89.08378999 20.03867705 90.94198443 17.875 94.1875 C14.15874974 96.53035342 11.21674546 96.74005039 7 96 C4.21962289 95.16636052 1.6767753 94.14718941 -1 93 C-3.47334711 99.00670012 -5.1379796 104.54628977 -6 111 C-21.51080955 111.59529759 -34.54708909 110.68388958 -48 102 C-47.69012383 99.74963714 -47.37700182 97.49972106 -47.0625 95.25 C-46.88847656 93.99703125 -46.71445312 92.7440625 -46.53515625 91.453125 C-46.13830141 88.89239744 -45.66609247 86.49371809 -45 84 C-44.4238352 80.71586063 -44.15879997 79.13632602 -45 76 C-47.15745936 72.92750924 -49.49920298 70.18837205 -52.03125 67.41796875 C-54 65 -54 65 -54 62 C-47.73 62 -41.46 62 -35 62 C-35 57.71 -35 53.42 -35 49 C-36.98 49 -38.96 49 -41 49 C-41.66 48.67 -42.32 48.34 -43 48 C-43.042721 46.33388095 -43.04063832 44.66617115 -43 43 C-42 42 -42 42 -38.4375 41.9375 C-37.303125 41.958125 -36.16875 41.97875 -35 42 C-35 37.71 -35 33.42 -35 29 C-30.38 29 -25.76 29 -21 29 C-20.505 32.465 -20.505 32.465 -20 36 C-17.525 35.505 -17.525 35.505 -15 35 C-15.020625 34.030625 -15.04125 33.06125 -15.0625 32.0625 C-15 29 -15 29 -14 28 C-9.66469082 27.85606543 -5.33842269 27.95787939 -1 28 C-1 23.71 -1 19.42 -1 15 C1.64 15 4.28 15 7 15 C7 13.02 7 11.04 7 9 C4.36 9 1.72 9 -1 9 C-1.09765625 2.84765625 -1.09765625 2.84765625 -1 1 C-0.67 0.67 -0.34 0.34 0 0 Z " fill="#02BEFA" transform="translate(78,17)"/>
<path d="M0 0 C10.89 0 21.78 0 33 0 C33.495 3.465 33.495 3.465 34 7 C35.65 7 37.3 7 39 7 C38.979375 6.030625 38.95875 5.06125 38.9375 4.0625 C39 1 39 1 40 0 C42.33297433 -0.04092937 44.66705225 -0.04241723 47 0 C46.77183594 0.61746094 46.54367188 1.23492187 46.30859375 1.87109375 C43.99529333 8.68651247 42.84852339 14.49709541 46.05078125 21.19921875 C48.27428196 24.92341034 50.74270888 28.10463012 54 31 C53.38125 32.11375 52.7625 33.2275 52.125 34.375 C49.74510754 39.08414891 48.80704837 43.81789994 48 49 C32.48919045 49.59529759 19.45291091 48.68388958 6 40 C6.30987617 37.74963714 6.62299818 35.49972106 6.9375 33.25 C7.11152344 31.99703125 7.28554688 30.7440625 7.46484375 29.453125 C7.86169859 26.89239744 8.33390753 24.49371809 9 22 C9.5761648 18.71586063 9.84120003 17.13632602 9 14 C6.84254064 10.92750924 4.50079702 8.18837205 1.96875 5.41796875 C0 3 0 3 0 0 Z " fill="#27A5FD" transform="translate(24,79)"/>
<path d="M0 0 C1.4540625 0.0309375 1.4540625 0.0309375 2.9375 0.0625 C4.0625 5.8125 4.0625 5.8125 2.9375 8.0625 C4.32775391 8.04509766 4.32775391 8.04509766 5.74609375 8.02734375 C6.94363281 8.01832031 8.14117187 8.00929688 9.375 8 C10.56996094 7.98839844 11.76492187 7.97679687 12.99609375 7.96484375 C15.9375 8.0625 15.9375 8.0625 16.9375 9.0625 C17.01008946 11.24889453 17.02123783 13.43750389 17 15.625 C16.99097656 16.82253906 16.98195312 18.02007813 16.97265625 19.25390625 C16.96105469 20.18074219 16.94945312 21.10757812 16.9375 22.0625 C18.6390625 22.0315625 18.6390625 22.0315625 20.375 22 C23.9375 22.0625 23.9375 22.0625 24.9375 23.0625 C24.97813832 24.72867115 24.980221 26.39638095 24.9375 28.0625 C22.22870665 29.41689668 19.92816732 29.12751451 16.9375 29.0625 C16.94910156 29.91714844 16.96070313 30.77179687 16.97265625 31.65234375 C16.98167969 32.75707031 16.99070313 33.86179688 17 35 C17.01160156 36.10214844 17.02320313 37.20429687 17.03515625 38.33984375 C16.9375 41.0625 16.9375 41.0625 15.9375 42.0625 C13.75110547 42.13508946 11.56249611 42.14623783 9.375 42.125 C7.57869141 42.11146484 7.57869141 42.11146484 5.74609375 42.09765625 C4.81925781 42.08605469 3.89242188 42.07445312 2.9375 42.0625 C2.6075 39.7525 2.2775 37.4425 1.9375 35.0625 C0.6175 34.7325 -0.7025 34.4025 -2.0625 34.0625 C-2.65982819 36.82514289 -3.0625 39.22282769 -3.0625 42.0625 C-7.6825 42.0625 -12.3025 42.0625 -17.0625 42.0625 C-17.0625 37.4425 -17.0625 32.8225 -17.0625 28.0625 C-13.5975 27.5675 -13.5975 27.5675 -10.0625 27.0625 C-10.3925 25.7425 -10.7225 24.4225 -11.0625 23.0625 C-13.0425 23.0625 -15.0225 23.0625 -17.0625 23.0625 C-17.08935412 20.75006208 -17.10882841 18.4375373 -17.125 16.125 C-17.13660156 14.83722656 -17.14820313 13.54945312 -17.16015625 12.22265625 C-17.0625 9.0625 -17.0625 9.0625 -16.0625 8.0625 C-14.04285801 7.99005947 -12.02082876 7.97872812 -10 8 C-8.34291016 8.01353516 -8.34291016 8.01353516 -6.65234375 8.02734375 C-5.79769531 8.03894531 -4.94304688 8.05054688 -4.0625 8.0625 C-4.083125 6.928125 -4.10375 5.79375 -4.125 4.625 C-4.04530802 0.08255731 -4.04530802 0.08255731 0 0 Z " fill="#47C98E" transform="translate(25.0625,-0.0625)"/>
<path d="M0 0 C3.35286458 0.03255208 6.70572917 0.06510417 10.05859375 0.09765625 C10.05859375 4.71765625 10.05859375 9.33765625 10.05859375 14.09765625 C7.41859375 14.09765625 4.77859375 14.09765625 2.05859375 14.09765625 C2.01587275 15.7637753 2.01795543 17.4314851 2.05859375 19.09765625 C4.02682261 21.06588511 7.40668084 20.76014006 10.05859375 21.09765625 C10.08545928 23.07675023 10.1049275 25.05594596 10.12109375 27.03515625 C10.13269531 28.13730469 10.14429688 29.23945312 10.15625 30.375 C10.05859375 33.09765625 10.05859375 33.09765625 9.05859375 34.09765625 C7.04264793 34.33193403 5.02011975 34.51101749 2.99609375 34.66015625 C1.89136719 34.74394531 0.78664062 34.82773438 -0.3515625 34.9140625 C-1.20621094 34.97464844 -2.06085938 35.03523438 -2.94140625 35.09765625 C-2.92078125 36.06703125 -2.90015625 37.03640625 -2.87890625 38.03515625 C-2.94140625 41.09765625 -2.94140625 41.09765625 -3.94140625 42.09765625 C-6.44140625 42.22265625 -6.44140625 42.22265625 -8.94140625 42.09765625 C-9.43640625 41.60265625 -9.43640625 41.60265625 -9.94140625 41.09765625 C-9.94140625 38.78765625 -9.94140625 36.47765625 -9.94140625 34.09765625 C-14.56140625 34.09765625 -19.18140625 34.09765625 -23.94140625 34.09765625 C-23.94140625 29.80765625 -23.94140625 25.51765625 -23.94140625 21.09765625 C-25.92140625 21.09765625 -27.90140625 21.09765625 -29.94140625 21.09765625 C-30.60140625 20.76765625 -31.26140625 20.43765625 -31.94140625 20.09765625 C-31.98412725 18.4315372 -31.98204457 16.7638274 -31.94140625 15.09765625 C-30.94140625 14.09765625 -30.94140625 14.09765625 -27.37890625 14.03515625 C-26.24453125 14.05578125 -25.11015625 14.07640625 -23.94140625 14.09765625 C-23.94140625 9.80765625 -23.94140625 5.51765625 -23.94140625 1.09765625 C-19.32140625 1.09765625 -14.70140625 1.09765625 -9.94140625 1.09765625 C-9.61140625 3.40765625 -9.28140625 5.71765625 -8.94140625 8.09765625 C-7.29140625 7.76765625 -5.64140625 7.43765625 -3.94140625 7.09765625 C-3.96203125 6.12828125 -3.98265625 5.15890625 -4.00390625 4.16015625 C-3.92166227 0.13020127 -3.92166227 0.13020127 0 0 Z " fill="#F8CF06" transform="translate(66.94140625,44.90234375)"/>
<path d="M0 0 C5.66174421 0.51470402 10.49181342 1.73492982 15.21484375 5.01953125 C17.55856948 8.53511984 17.66787544 9.88046904 17.21484375 14.01953125 C15.68359375 16.66015625 15.68359375 16.66015625 13.71484375 19.26953125 C10.69447089 23.82162069 9.19588455 26.99466391 9.5703125 32.48046875 C10.59865919 36.53153149 12.73729632 39.845232 14.8671875 43.41015625 C16.89591724 47.33824745 16.88983935 49.6695596 16.21484375 54.01953125 C14.90234375 57.01953125 14.90234375 57.01953125 13.21484375 59.01953125 C12.22484375 59.01953125 11.23484375 59.01953125 10.21484375 59.01953125 C-0.60022823 47.2049621 -5.49355672 30.45301675 -5.01953125 14.66796875 C-3.72508763 0.04075588 -3.72508763 0.04075588 0 0 Z " fill="#294089" transform="translate(6.78515625,48.98046875)"/>
<path d="M0 0 C7.80971831 0.97122562 13.41312118 5.94421417 18.3125 11.8125 C24.60877352 20.1280963 27.17161414 27.70315168 27 38 C26.67 37.34 26.34 36.68 26 36 C23.84728549 35.49609827 23.84728549 35.49609827 21.3125 35.1875 C16.26551846 34.22994145 13.47297035 32.96910897 10 29 C6.05478864 22.24877206 5.5133479 16.5948531 7 9 C4.36 9 1.72 9 -1 9 C-1.09765625 2.84765625 -1.09765625 2.84765625 -1 1 C-0.67 0.67 -0.34 0.34 0 0 Z " fill="#2DCADE" transform="translate(78,17)"/>
<path d="M0 0 C3.35286458 0.03255208 6.70572917 0.06510417 10.05859375 0.09765625 C10.05859375 4.71765625 10.05859375 9.33765625 10.05859375 14.09765625 C7.41859375 14.09765625 4.77859375 14.09765625 2.05859375 14.09765625 C2.01587275 15.7637753 2.01795543 17.4314851 2.05859375 19.09765625 C4.02682261 21.06588511 7.40668084 20.76014006 10.05859375 21.09765625 C10.08545928 23.07675023 10.1049275 25.05594596 10.12109375 27.03515625 C10.13269531 28.13730469 10.14429687 29.23945312 10.15625 30.375 C10.05859375 33.09765625 10.05859375 33.09765625 9.05859375 34.09765625 C4.76163459 34.83128342 2.34401568 33.94441574 -1.12890625 31.53515625 C-4.86789027 28.47533759 -6.65451838 25.84305529 -7.94140625 21.09765625 C-8.31207566 16.82782975 -8.30238563 13.1805944 -6.94140625 9.09765625 C-5.95140625 8.43765625 -4.96140625 7.77765625 -3.94140625 7.09765625 C-3.77470352 4.05591731 -3.77470352 4.05591731 -3.94140625 1.09765625 C-2.94140625 0.09765625 -2.94140625 0.09765625 0 0 Z " fill="#F7EC57" transform="translate(66.94140625,44.90234375)"/>
<path d="M0 0 C1.97909398 -0.02686553 3.95828971 -0.04633375 5.9375 -0.0625 C7.03964844 -0.07410156 8.14179687 -0.08570313 9.27734375 -0.09765625 C12 0 12 0 13 1 C13.07258946 3.18639453 13.08373783 5.37500389 13.0625 7.5625 C13.05347656 8.76003906 13.04445313 9.95757812 13.03515625 11.19140625 C13.02355469 12.11824219 13.01195312 13.04507812 13 14 C14.134375 13.979375 15.26875 13.95875 16.4375 13.9375 C20 14 20 14 21 15 C21.04063832 16.66617115 21.042721 18.33388095 21 20 C18.04335481 21.4783226 15.25770263 21.06032783 12 21 C12 22.65 12 24.3 12 26 C7.26734357 24.82456899 3.71978922 23.60227261 -0.0625 20.4375 C-3.28230402 14.72494447 -2.72294096 9.07507222 -1 2.875 C-0.67 1.92625 -0.34 0.9775 0 0 Z " fill="#90D779" transform="translate(29,8)"/>
<path d="M0 0 C2.77181925 1.38590963 2.96264015 3.26163822 3.90429688 6.078125 C4.12150391 6.75359375 4.33871094 7.4290625 4.5625 8.125 C4.78357422 8.77726562 5.00464844 9.42953125 5.23242188 10.1015625 C7.26065014 16.27816097 8.14321857 22.29936048 8.125 28.8125 C8.12757812 29.74707031 8.13015625 30.68164062 8.1328125 31.64453125 C8 34 8 34 7 36 C3.39588346 34.55366256 1.88597432 32.80863332 -0.1875 29.5625 C-0.69667969 28.78003906 -1.20585938 27.99757813 -1.73046875 27.19140625 C-5.12569402 21.33072509 -4.55722816 14.5637135 -4 8 C-2.97839119 4.91732887 -1.76410497 2.75641402 0 0 Z " fill="#284089" transform="translate(118,38)"/>
</svg>
